# xmcd CD database file
#
# Track frame offsets:
#	150
#	13638
#	25683
#	40943
#	54493
#	71095
#	101765
#	126408
#	140860
#	162285
#	171130
#	186455
#	198358
#	212003
#	222155
#	243628
#	263315
#	280098
#
# Disc length: 4063 seconds
#
# Revision: 0
# Processed by: cddbd v1.5PL3 Copyright (c) Steve Scherf et al.
# Submitted via: CDex 1.51
#
DISCID=0f0fdd12
DTITLE=Charlie Parker - Bird At Birdland [CD3]
DYEAR=1951
DGENRE=Jazz
TTITLE0=Just Friends
TTITLE1=Everythig Happens To Me
TTITLE2=East Of The Sun
TTITLE3=Laura
TTITLE4=Dancing In The Dark
TTITLE5=Blue N' Boogie
TTITLE6=Anthropology
TTITLE7='Round About Midnight
TTITLE8=Night In Tunisia
TTITLE9=What Is This Thing Called Love?
TTITLE10=Laura
TTITLE11=Repertition
TTITLE12=They Can't Take That Away From Me
TTITLE13=East To Love
TTITLE14=Rocker - Jumpin' With Symphony Sid
TTITLE15=Hot House
TTITLE16=Embraceable You
TTITLE17=How High The Moon
EXTD=YEAR: 1951
EXTT0=
EXTT1=
EXTT2=
EXTT3=
EXTT4=
EXTT5=
EXTT6=
EXTT7=
EXTT8=
EXTT9=
EXTT10=
EXTT11=
EXTT12=
EXTT13=
EXTT14=
EXTT15=
EXTT16=
EXTT17=
PLAYORDER=
